<svg xmlns="http://www.w3.org/2000/svg" xmlns:xlink="http://www.w3.org/1999/xlink" contentStyleType="text/css" height="922px" preserveAspectRatio="none" style="width:686px;height:922px;background:#FFFFFF;" version="1.1" viewBox="0 0 686 922" width="686px" zoomAndPan="magnify"><defs><filter height="300%" id="farub0kzq4bpa" width="300%" x="-1" y="-1"><feGaussianBlur result="blurOut" stdDeviation="2.0"/><feColorMatrix in="blurOut" result="blurOut2" type="matrix" values="0 0 0 0 0 0 0 0 0 0 0 0 0 0 0 0 0 0 .4 0"/><feOffset dx="4.0" dy="4.0" in="blurOut2" result="blurOut3"/><feBlend in="SourceGraphic" in2="blurOut3" mode="normal"/></filter></defs><g><text fill="#000000" font-family="sans-serif" font-size="14" font-weight="bold" lengthAdjust="spacing" textLength="190.9893" x="240.79" y="22.9951">Modelagem inst&#226;ncias 4</text><!--class Atividade1--><g id="elem_Atividade1"><rect codeLine="5" fill="#FEFECE" filter="url(#farub0kzq4bpa)" height="129.4844" id="Atividade1" style="stroke:#A80036;stroke-width:1.0;" width="239.6162" x="44" y="545.2969"/><ellipse cx="122.0562" cy="561.2969" fill="#ADD1B2" rx="11" ry="11" style="stroke:#A80036;stroke-width:1.0;"/><path d="M125.0249,566.9375 Q124.4468,567.2344 123.8062,567.375 Q123.1655,567.5313 122.4624,567.5313 Q119.9624,567.5313 118.6343,565.8906 Q117.3218,564.2344 117.3218,561.1094 Q117.3218,557.9844 118.6343,556.3281 Q119.9624,554.6719 122.4624,554.6719 Q123.1655,554.6719 123.8062,554.8281 Q124.4624,554.9844 125.0249,555.2813 L125.0249,558 Q124.3999,557.4219 123.8062,557.1563 Q123.2124,556.875 122.5874,556.875 Q121.2437,556.875 120.5562,557.9531 Q119.8687,559.0156 119.8687,561.1094 Q119.8687,563.2031 120.5562,564.2813 Q121.2437,565.3438 122.5874,565.3438 Q123.2124,565.3438 123.8062,565.0781 Q124.3999,564.7969 125.0249,564.2188 L125.0249,566.9375 Z " fill="#000000"/><text fill="#000000" font-family="sans-serif" font-size="14" lengthAdjust="spacing" textLength="75.0039" x="142.5562" y="566.1436">Atividade1</text><line style="stroke:#A80036;stroke-width:1.0;" x1="45" x2="282.6162" y1="577.2969" y2="577.2969"/><text fill="#000000" font-family="sans-serif" font-size="14" lengthAdjust="spacing" textLength="73.7734" x="50" y="594.292">&#171;oid&#187; id: 1</text><text fill="#000000" font-family="sans-serif" font-size="14" lengthAdjust="spacing" textLength="87.1787" x="50" y="610.5889">evento: Java</text><text fill="#000000" font-family="sans-serif" font-size="14" lengthAdjust="spacing" textLength="227.6162" x="50" y="626.8857">descri&#231;&#227;o: Fundamentos de java</text><text fill="#000000" font-family="sans-serif" font-size="14" lengthAdjust="spacing" textLength="97.6719" x="50" y="643.1826">preco: 800.00</text><text fill="#000000" font-family="sans-serif" font-size="14" lengthAdjust="spacing" textLength="144.4297" x="50" y="659.4795">professor: Clodoaldo</text><line style="stroke:#A80036;stroke-width:1.0;" x1="45" x2="282.6162" y1="666.7813" y2="666.7813"/></g><!--class Atividade2--><g id="elem_Atividade2"><rect codeLine="12" fill="#FEFECE" filter="url(#farub0kzq4bpa)" height="129.4844" id="Atividade2" style="stroke:#A80036;stroke-width:1.0;" width="309.0693" x="363.5" y="545.2969"/><ellipse cx="476.2827" cy="561.2969" fill="#ADD1B2" rx="11" ry="11" style="stroke:#A80036;stroke-width:1.0;"/><path d="M479.2515,566.9375 Q478.6733,567.2344 478.0327,567.375 Q477.3921,567.5313 476.689,567.5313 Q474.189,567.5313 472.8608,565.8906 Q471.5483,564.2344 471.5483,561.1094 Q471.5483,557.9844 472.8608,556.3281 Q474.189,554.6719 476.689,554.6719 Q477.3921,554.6719 478.0327,554.8281 Q478.689,554.9844 479.2515,555.2813 L479.2515,558 Q478.6265,557.4219 478.0327,557.1563 Q477.439,556.875 476.814,556.875 Q475.4702,556.875 474.7827,557.9531 Q474.0952,559.0156 474.0952,561.1094 Q474.0952,563.2031 474.7827,564.2813 Q475.4702,565.3438 476.814,565.3438 Q477.439,565.3438 478.0327,565.0781 Q478.6265,564.7969 479.2515,564.2188 L479.2515,566.9375 Z " fill="#000000"/><text fill="#000000" font-family="sans-serif" font-size="14" lengthAdjust="spacing" textLength="75.0039" x="496.7827" y="566.1436">Atividade2</text><line style="stroke:#A80036;stroke-width:1.0;" x1="364.5" x2="671.5693" y1="577.2969" y2="577.2969"/><text fill="#000000" font-family="sans-serif" font-size="14" lengthAdjust="spacing" textLength="73.7734" x="369.5" y="594.292">&#171;oid&#187; id: 2</text><text fill="#000000" font-family="sans-serif" font-size="14" lengthAdjust="spacing" textLength="106.1348" x="369.5" y="610.5889">evento: Python</text><text fill="#000000" font-family="sans-serif" font-size="14" lengthAdjust="spacing" textLength="297.0693" x="369.5" y="626.8857">descri&#231;&#227;o: Minera&#231;&#227;o de dados em Python</text><text fill="#000000" font-family="sans-serif" font-size="14" lengthAdjust="spacing" textLength="97.6719" x="369.5" y="643.1826">preco: 900.00</text><text fill="#000000" font-family="sans-serif" font-size="14" lengthAdjust="spacing" textLength="129.6982" x="369.5" y="659.4795">professor: Josefina</text><line style="stroke:#A80036;stroke-width:1.0;" x1="364.5" x2="671.5693" y1="666.7813" y2="666.7813"/></g><!--class Horario1--><g id="elem_Horario1"><rect codeLine="19" fill="#FEFECE" filter="url(#farub0kzq4bpa)" height="113.1875" id="Horario1" style="stroke:#A80036;stroke-width:1.0;" width="139.6338" x="7" y="795.2969"/><ellipse cx="43.1896" cy="811.2969" fill="#ADD1B2" rx="11" ry="11" style="stroke:#A80036;stroke-width:1.0;"/><path d="M46.1583,816.9375 Q45.5802,817.2344 44.9396,817.375 Q44.2989,817.5313 43.5958,817.5313 Q41.0958,817.5313 39.7677,815.8906 Q38.4552,814.2344 38.4552,811.1094 Q38.4552,807.9844 39.7677,806.3281 Q41.0958,804.6719 43.5958,804.6719 Q44.2989,804.6719 44.9396,804.8281 Q45.5958,804.9844 46.1583,805.2813 L46.1583,808 Q45.5333,807.4219 44.9396,807.1563 Q44.3458,806.875 43.7208,806.875 Q42.3771,806.875 41.6896,807.9531 Q41.0021,809.0156 41.0021,811.1094 Q41.0021,813.2031 41.6896,814.2813 Q42.3771,815.3438 43.7208,815.3438 Q44.3458,815.3438 44.9396,815.0781 Q45.5333,814.7969 46.1583,814.2188 L46.1583,816.9375 Z " fill="#000000"/><text fill="#000000" font-family="sans-serif" font-size="14" lengthAdjust="spacing" textLength="60.5459" x="61.8983" y="816.1436">Horario1</text><line style="stroke:#A80036;stroke-width:1.0;" x1="8" x2="145.6338" y1="827.2969" y2="827.2969"/><text fill="#000000" font-family="sans-serif" font-size="14" lengthAdjust="spacing" textLength="73.7734" x="13" y="844.292">&#171;oid&#187; id: 1</text><text fill="#000000" font-family="sans-serif" font-size="14" lengthAdjust="spacing" textLength="103.5781" x="13" y="860.5889">data: 18/09/24</text><text fill="#000000" font-family="sans-serif" font-size="14" lengthAdjust="spacing" textLength="127.6338" x="13" y="876.8857">horarioInicio: 8:00</text><text fill="#000000" font-family="sans-serif" font-size="14" lengthAdjust="spacing" textLength="125.0771" x="13" y="893.1826">horarioFim: 12:00</text><line style="stroke:#A80036;stroke-width:1.0;" x1="8" x2="145.6338" y1="900.4844" y2="900.4844"/></g><!--class Horario2--><g id="elem_Horario2"><rect codeLine="25" fill="#FEFECE" filter="url(#farub0kzq4bpa)" height="113.1875" id="Horario2" style="stroke:#A80036;stroke-width:1.0;" width="139.6338" x="182" y="795.2969"/><ellipse cx="218.1896" cy="811.2969" fill="#ADD1B2" rx="11" ry="11" style="stroke:#A80036;stroke-width:1.0;"/><path d="M221.1583,816.9375 Q220.5802,817.2344 219.9396,817.375 Q219.2989,817.5313 218.5958,817.5313 Q216.0958,817.5313 214.7677,815.8906 Q213.4552,814.2344 213.4552,811.1094 Q213.4552,807.9844 214.7677,806.3281 Q216.0958,804.6719 218.5958,804.6719 Q219.2989,804.6719 219.9396,804.8281 Q220.5958,804.9844 221.1583,805.2813 L221.1583,808 Q220.5333,807.4219 219.9396,807.1563 Q219.3458,806.875 218.7208,806.875 Q217.3771,806.875 216.6896,807.9531 Q216.0021,809.0156 216.0021,811.1094 Q216.0021,813.2031 216.6896,814.2813 Q217.3771,815.3438 218.7208,815.3438 Q219.3458,815.3438 219.9396,815.0781 Q220.5333,814.7969 221.1583,814.2188 L221.1583,816.9375 Z " fill="#000000"/><text fill="#000000" font-family="sans-serif" font-size="14" lengthAdjust="spacing" textLength="60.5459" x="236.8983" y="816.1436">Horario2</text><line style="stroke:#A80036;stroke-width:1.0;" x1="183" x2="320.6338" y1="827.2969" y2="827.2969"/><text fill="#000000" font-family="sans-serif" font-size="14" lengthAdjust="spacing" textLength="73.7734" x="188" y="844.292">&#171;oid&#187; id: 2</text><text fill="#000000" font-family="sans-serif" font-size="14" lengthAdjust="spacing" textLength="103.5781" x="188" y="860.5889">data: 19/09/24</text><text fill="#000000" font-family="sans-serif" font-size="14" lengthAdjust="spacing" textLength="127.6338" x="188" y="876.8857">horarioInicio: 8:00</text><text fill="#000000" font-family="sans-serif" font-size="14" lengthAdjust="spacing" textLength="125.0771" x="188" y="893.1826">horarioFim: 12:00</text><line style="stroke:#A80036;stroke-width:1.0;" x1="183" x2="320.6338" y1="900.4844" y2="900.4844"/></g><!--class Horario3--><g id="elem_Horario3"><rect codeLine="31" fill="#FEFECE" filter="url(#farub0kzq4bpa)" height="113.1875" id="Horario3" style="stroke:#A80036;stroke-width:1.0;" width="139.6338" x="448" y="795.2969"/><ellipse cx="484.1896" cy="811.2969" fill="#ADD1B2" rx="11" ry="11" style="stroke:#A80036;stroke-width:1.0;"/><path d="M487.1583,816.9375 Q486.5802,817.2344 485.9396,817.375 Q485.2989,817.5313 484.5958,817.5313 Q482.0958,817.5313 480.7677,815.8906 Q479.4552,814.2344 479.4552,811.1094 Q479.4552,807.9844 480.7677,806.3281 Q482.0958,804.6719 484.5958,804.6719 Q485.2989,804.6719 485.9396,804.8281 Q486.5958,804.9844 487.1583,805.2813 L487.1583,808 Q486.5333,807.4219 485.9396,807.1563 Q485.3458,806.875 484.7208,806.875 Q483.3771,806.875 482.6896,807.9531 Q482.0021,809.0156 482.0021,811.1094 Q482.0021,813.2031 482.6896,814.2813 Q483.3771,815.3438 484.7208,815.3438 Q485.3458,815.3438 485.9396,815.0781 Q486.5333,814.7969 487.1583,814.2188 L487.1583,816.9375 Z " fill="#000000"/><text fill="#000000" font-family="sans-serif" font-size="14" lengthAdjust="spacing" textLength="60.5459" x="502.8983" y="816.1436">Horario3</text><line style="stroke:#A80036;stroke-width:1.0;" x1="449" x2="586.6338" y1="827.2969" y2="827.2969"/><text fill="#000000" font-family="sans-serif" font-size="14" lengthAdjust="spacing" textLength="73.7734" x="454" y="844.292">&#171;oid&#187; id: 3</text><text fill="#000000" font-family="sans-serif" font-size="14" lengthAdjust="spacing" textLength="103.5781" x="454" y="860.5889">data: 20/09/24</text><text fill="#000000" font-family="sans-serif" font-size="14" lengthAdjust="spacing" textLength="127.6338" x="454" y="876.8857">horarioInicio: 8:00</text><text fill="#000000" font-family="sans-serif" font-size="14" lengthAdjust="spacing" textLength="125.0771" x="454" y="893.1826">horarioFim: 17:00</text><line style="stroke:#A80036;stroke-width:1.0;" x1="449" x2="586.6338" y1="900.4844" y2="900.4844"/></g><!--class Participante1--><g id="elem_Participante1"><rect codeLine="37" fill="#FEFECE" filter="url(#farub0kzq4bpa)" height="96.8906" id="Participante1" style="stroke:#A80036;stroke-width:1.0;" width="125.0918" x="40.5" y="327.2969"/><ellipse cx="55.5" cy="343.2969" fill="#ADD1B2" rx="11" ry="11" style="stroke:#A80036;stroke-width:1.0;"/><path d="M58.4688,348.9375 Q57.8906,349.2344 57.25,349.375 Q56.6094,349.5313 55.9063,349.5313 Q53.4063,349.5313 52.0781,347.8906 Q50.7656,346.2344 50.7656,343.1094 Q50.7656,339.9844 52.0781,338.3281 Q53.4063,336.6719 55.9063,336.6719 Q56.6094,336.6719 57.25,336.8281 Q57.9063,336.9844 58.4688,337.2813 L58.4688,340 Q57.8438,339.4219 57.25,339.1563 Q56.6563,338.875 56.0313,338.875 Q54.6875,338.875 54,339.9531 Q53.3125,341.0156 53.3125,343.1094 Q53.3125,345.2031 54,346.2813 Q54.6875,347.3438 56.0313,347.3438 Q56.6563,347.3438 57.25,347.0781 Q57.8438,346.7969 58.4688,346.2188 L58.4688,348.9375 Z " fill="#000000"/><text fill="#000000" font-family="sans-serif" font-size="14" lengthAdjust="spacing" textLength="93.0918" x="69.5" y="348.1436">Participante1</text><line style="stroke:#A80036;stroke-width:1.0;" x1="41.5" x2="164.5918" y1="359.2969" y2="359.2969"/><text fill="#000000" font-family="sans-serif" font-size="14" lengthAdjust="spacing" textLength="73.7734" x="46.5" y="376.292">&#171;oid&#187; id: 1</text><text fill="#000000" font-family="sans-serif" font-size="14" lengthAdjust="spacing" textLength="86.8301" x="46.5" y="392.5889">nome: F&#225;bio</text><text fill="#000000" font-family="sans-serif" font-size="14" lengthAdjust="spacing" textLength="77.0889" x="46.5" y="408.8857">foto: img-1</text><line style="stroke:#A80036;stroke-width:1.0;" x1="41.5" x2="164.5918" y1="416.1875" y2="416.1875"/></g><!--class Participante2--><g id="elem_Participante2"><rect codeLine="42" fill="#FEFECE" filter="url(#farub0kzq4bpa)" height="96.8906" id="Participante2" style="stroke:#A80036;stroke-width:1.0;" width="125.0918" x="200.5" y="327.2969"/><ellipse cx="215.5" cy="343.2969" fill="#ADD1B2" rx="11" ry="11" style="stroke:#A80036;stroke-width:1.0;"/><path d="M218.4688,348.9375 Q217.8906,349.2344 217.25,349.375 Q216.6094,349.5313 215.9063,349.5313 Q213.4063,349.5313 212.0781,347.8906 Q210.7656,346.2344 210.7656,343.1094 Q210.7656,339.9844 212.0781,338.3281 Q213.4063,336.6719 215.9063,336.6719 Q216.6094,336.6719 217.25,336.8281 Q217.9063,336.9844 218.4688,337.2813 L218.4688,340 Q217.8438,339.4219 217.25,339.1563 Q216.6563,338.875 216.0313,338.875 Q214.6875,338.875 214,339.9531 Q213.3125,341.0156 213.3125,343.1094 Q213.3125,345.2031 214,346.2813 Q214.6875,347.3438 216.0313,347.3438 Q216.6563,347.3438 217.25,347.0781 Q217.8438,346.7969 218.4688,346.2188 L218.4688,348.9375 Z " fill="#000000"/><text fill="#000000" font-family="sans-serif" font-size="14" lengthAdjust="spacing" textLength="93.0918" x="229.5" y="348.1436">Participante2</text><line style="stroke:#A80036;stroke-width:1.0;" x1="201.5" x2="324.5918" y1="359.2969" y2="359.2969"/><text fill="#000000" font-family="sans-serif" font-size="14" lengthAdjust="spacing" textLength="73.7734" x="206.5" y="376.292">&#171;oid&#187; id: 2</text><text fill="#000000" font-family="sans-serif" font-size="14" lengthAdjust="spacing" textLength="77.458" x="206.5" y="392.5889">nome: Jos&#233;</text><text fill="#000000" font-family="sans-serif" font-size="14" lengthAdjust="spacing" textLength="77.0889" x="206.5" y="408.8857">foto: img-1</text><line style="stroke:#A80036;stroke-width:1.0;" x1="201.5" x2="324.5918" y1="416.1875" y2="416.1875"/></g><!--class Participante3--><g id="elem_Participante3"><rect codeLine="47" fill="#FEFECE" filter="url(#farub0kzq4bpa)" height="96.8906" id="Participante3" style="stroke:#A80036;stroke-width:1.0;" width="127.2744" x="360.5" y="327.2969"/><ellipse cx="376.4822" cy="343.2969" fill="#ADD1B2" rx="11" ry="11" style="stroke:#A80036;stroke-width:1.0;"/><path d="M379.4509,348.9375 Q378.8728,349.2344 378.2322,349.375 Q377.5916,349.5313 376.8884,349.5313 Q374.3884,349.5313 373.0603,347.8906 Q371.7478,346.2344 371.7478,343.1094 Q371.7478,339.9844 373.0603,338.3281 Q374.3884,336.6719 376.8884,336.6719 Q377.5916,336.6719 378.2322,336.8281 Q378.8884,336.9844 379.4509,337.2813 L379.4509,340 Q378.8259,339.4219 378.2322,339.1563 Q377.6384,338.875 377.0134,338.875 Q375.6697,338.875 374.9822,339.9531 Q374.2947,341.0156 374.2947,343.1094 Q374.2947,345.2031 374.9822,346.2813 Q375.6697,347.3438 377.0134,347.3438 Q377.6384,347.3438 378.2322,347.0781 Q378.8259,346.7969 379.4509,346.2188 L379.4509,348.9375 Z " fill="#000000"/><text fill="#000000" font-family="sans-serif" font-size="14" lengthAdjust="spacing" textLength="93.0918" x="390.7004" y="348.1436">Participante3</text><line style="stroke:#A80036;stroke-width:1.0;" x1="361.5" x2="486.7744" y1="359.2969" y2="359.2969"/><text fill="#000000" font-family="sans-serif" font-size="14" lengthAdjust="spacing" textLength="73.7734" x="366.5" y="376.292">&#171;oid&#187; id: 3</text><text fill="#000000" font-family="sans-serif" font-size="14" lengthAdjust="spacing" textLength="115.2744" x="366.5" y="392.5889">nome: Francisca</text><text fill="#000000" font-family="sans-serif" font-size="14" lengthAdjust="spacing" textLength="77.0889" x="366.5" y="408.8857">foto: img-3</text><line style="stroke:#A80036;stroke-width:1.0;" x1="361.5" x2="486.7744" y1="416.1875" y2="416.1875"/></g><!--class Participante4--><g id="elem_Participante4"><rect codeLine="52" fill="#FEFECE" filter="url(#farub0kzq4bpa)" height="96.8906" id="Participante4" style="stroke:#A80036;stroke-width:1.0;" width="125.0918" x="522.5" y="327.2969"/><ellipse cx="537.5" cy="343.2969" fill="#ADD1B2" rx="11" ry="11" style="stroke:#A80036;stroke-width:1.0;"/><path d="M540.4688,348.9375 Q539.8906,349.2344 539.25,349.375 Q538.6094,349.5313 537.9063,349.5313 Q535.4063,349.5313 534.0781,347.8906 Q532.7656,346.2344 532.7656,343.1094 Q532.7656,339.9844 534.0781,338.3281 Q535.4063,336.6719 537.9063,336.6719 Q538.6094,336.6719 539.25,336.8281 Q539.9063,336.9844 540.4688,337.2813 L540.4688,340 Q539.8438,339.4219 539.25,339.1563 Q538.6563,338.875 538.0313,338.875 Q536.6875,338.875 536,339.9531 Q535.3125,341.0156 535.3125,343.1094 Q535.3125,345.2031 536,346.2813 Q536.6875,347.3438 538.0313,347.3438 Q538.6563,347.3438 539.25,347.0781 Q539.8438,346.7969 540.4688,346.2188 L540.4688,348.9375 Z " fill="#000000"/><text fill="#000000" font-family="sans-serif" font-size="14" lengthAdjust="spacing" textLength="93.0918" x="551.5" y="348.1436">Participante4</text><line style="stroke:#A80036;stroke-width:1.0;" x1="523.5" x2="646.5918" y1="359.2969" y2="359.2969"/><text fill="#000000" font-family="sans-serif" font-size="14" lengthAdjust="spacing" textLength="73.7734" x="528.5" y="376.292">&#171;oid&#187; id: 4</text><text fill="#000000" font-family="sans-serif" font-size="14" lengthAdjust="spacing" textLength="94.6025" x="528.5" y="392.5889">nome: Vit&#243;ria</text><text fill="#000000" font-family="sans-serif" font-size="14" lengthAdjust="spacing" textLength="77.0889" x="528.5" y="408.8857">foto: img-4</text><line style="stroke:#A80036;stroke-width:1.0;" x1="523.5" x2="646.5918" y1="416.1875" y2="416.1875"/></g><!--class Cadastro--><g id="elem_Cadastro"><rect codeLine="57" fill="#FEFECE" filter="url(#farub0kzq4bpa)" height="162.0781" id="Cadastro" style="stroke:#A80036;stroke-width:1.0;" width="188.668" x="225.5" y="44.2969"/><ellipse cx="284.1216" cy="60.2969" fill="#ADD1B2" rx="11" ry="11" style="stroke:#A80036;stroke-width:1.0;"/><path d="M287.0903,65.9375 Q286.5122,66.2344 285.8716,66.375 Q285.231,66.5313 284.5278,66.5313 Q282.0278,66.5313 280.6997,64.8906 Q279.3872,63.2344 279.3872,60.1094 Q279.3872,56.9844 280.6997,55.3281 Q282.0278,53.6719 284.5278,53.6719 Q285.231,53.6719 285.8716,53.8281 Q286.5278,53.9844 287.0903,54.2813 L287.0903,57 Q286.4653,56.4219 285.8716,56.1563 Q285.2778,55.875 284.6528,55.875 Q283.3091,55.875 282.6216,56.9531 Q281.9341,58.0156 281.9341,60.1094 Q281.9341,62.2031 282.6216,63.2813 Q283.3091,64.3438 284.6528,64.3438 Q285.2778,64.3438 285.8716,64.0781 Q286.4653,63.7969 287.0903,63.2188 L287.0903,65.9375 Z " fill="#000000"/><text fill="#000000" font-family="sans-serif" font-size="14" lengthAdjust="spacing" textLength="62.9248" x="304.6216" y="65.1436">Cadastro</text><line style="stroke:#A80036;stroke-width:1.0;" x1="226.5" x2="413.168" y1="76.2969" y2="76.2969"/><text fill="#000000" font-family="sans-serif" font-size="14" lengthAdjust="spacing" textLength="83.1182" x="231.5" y="93.292">&#171;oid&#187; id: int</text><text fill="#000000" font-family="sans-serif" font-size="14" lengthAdjust="spacing" textLength="90.6377" x="231.5" y="109.5889">nome: String</text><text fill="#000000" font-family="sans-serif" font-size="14" lengthAdjust="spacing" textLength="100.2559" x="231.5" y="125.8857">genero: String</text><text fill="#000000" font-family="sans-serif" font-size="14" lengthAdjust="spacing" textLength="176.668" x="231.5" y="142.1826">dataDeNascimento: Date</text><text fill="#000000" font-family="sans-serif" font-size="14" lengthAdjust="spacing" textLength="89.5576" x="231.5" y="158.4795">email: String</text><text fill="#000000" font-family="sans-serif" font-size="14" lengthAdjust="spacing" textLength="108.5342" x="231.5" y="174.7764">telefone: String</text><text fill="#000000" font-family="sans-serif" font-size="14" lengthAdjust="spacing" textLength="77.0889" x="231.5" y="191.0732">foto: img-1</text><line style="stroke:#A80036;stroke-width:1.0;" x1="226.5" x2="413.168" y1="198.375" y2="198.375"/></g><!--link Cadastro to Participante1--><g id="link_Cadastro_Participante1"><path codeLine="68" d="M249.85,206.6369 C215.17,246.3369 174.51,292.9069 144.77,326.9569 " fill="none" id="Cadastro-Participante1" style="stroke:#A80036;stroke-width:1.0;"/><text fill="#000000" font-family="sans-serif" font-size="13" lengthAdjust="spacing" textLength="85.3569" x="59.686" y="316.118">participantes</text></g><!--link Cadastro to Participante2--><g id="link_Cadastro_Participante2"><path codeLine="69" d="M301.57,206.6369 C292.47,246.3369 281.78,292.9069 273.97,326.9569 " fill="none" id="Cadastro-Participante2" style="stroke:#A80036;stroke-width:1.0;"/><text fill="#000000" font-family="sans-serif" font-size="13" lengthAdjust="spacing" textLength="85.3569" x="184.5547" y="316.118">participantes</text></g><!--link Cadastro to Participante3--><g id="link_Cadastro_Participante3"><path codeLine="70" d="M353.62,206.6369 C370.24,246.3369 389.73,292.9069 403.98,326.9569 " fill="none" id="Cadastro-Participante3" style="stroke:#A80036;stroke-width:1.0;"/><text fill="#000000" font-family="sans-serif" font-size="13" lengthAdjust="spacing" textLength="4.1323" x="349.5436" y="226.3883">&#160;</text><text fill="#000000" font-family="sans-serif" font-size="13" lengthAdjust="spacing" textLength="79.4917" x="274.1843" y="241.5211">cadastrados</text><text fill="#000000" font-family="sans-serif" font-size="13" lengthAdjust="spacing" textLength="85.3569" x="332.8474" y="316.118">participantes</text></g><!--link Cadastro to Participante4--><g id="link_Cadastro_Participante4"><path codeLine="71" d="M405.67,206.6369 C448.01,246.3369 497.68,292.9069 533.99,326.9569 " fill="none" id="Cadastro-Participante4" style="stroke:#A80036;stroke-width:1.0;"/><text fill="#000000" font-family="sans-serif" font-size="13" lengthAdjust="spacing" textLength="85.3569" x="458.4866" y="316.118">participantes</text></g><!--link Participante1 to Atividade1--><g id="link_Participante1_Atividade1"><path codeLine="72" d="M115.49,424.3069 C124.66,459.1669 137.21,506.8969 147.24,545.0769 " fill="none" id="Participante1-Atividade1" style="stroke:#A80036;stroke-width:1.0;"/><text fill="#000000" font-family="sans-serif" font-size="13" lengthAdjust="spacing" textLength="73.2393" x="39.124" y="444.2672">paticipante</text><text fill="#000000" font-family="sans-serif" font-size="13" lengthAdjust="spacing" textLength="60.4487" x="82.1712" y="534.2255">atividade</text></g><!--link Participante2 to Atividade1--><g id="link_Participante2_Atividade1"><path codeLine="73" d="M242.73,424.3069 C227.85,459.1669 207.48,506.8969 191.19,545.0769 " fill="none" id="Participante2-Atividade1" style="stroke:#A80036;stroke-width:1.0;"/><text fill="#000000" font-family="sans-serif" font-size="13" lengthAdjust="spacing" textLength="73.2393" x="167.9785" y="444.3875">paticipante</text><text fill="#000000" font-family="sans-serif" font-size="13" lengthAdjust="spacing" textLength="60.4487" x="197.4907" y="534.2255">atividade</text></g><!--link Participante3 to Atividade2--><g id="link_Participante3_Atividade2"><path codeLine="74" d="M443.25,424.3069 C457.38,459.1669 476.71,506.8969 492.18,545.0769 " fill="none" id="Participante3-Atividade2" style="stroke:#A80036;stroke-width:1.0;"/><text fill="#000000" font-family="sans-serif" font-size="13" lengthAdjust="spacing" textLength="73.2393" x="367.8217" y="444.2672">paticipante</text><text fill="#000000" font-family="sans-serif" font-size="13" lengthAdjust="spacing" textLength="60.4487" x="426.0954" y="534.2255">atividade</text></g><!--link Participante4 to Atividade2--><g id="link_Participante4_Atividade2"><path codeLine="75" d="M571.28,424.3069 C561.21,459.1669 547.43,506.8969 536.4,545.0769 " fill="none" id="Participante4-Atividade2" style="stroke:#A80036;stroke-width:1.0;"/><text fill="#000000" font-family="sans-serif" font-size="13" lengthAdjust="spacing" textLength="73.2393" x="511.5984" y="444.2672">paticipante</text><text fill="#000000" font-family="sans-serif" font-size="13" lengthAdjust="spacing" textLength="60.4487" x="541.7145" y="534.2255">atividade</text></g><!--link Atividade1 to Horario1--><g id="link_Atividade1_Horario1"><path codeLine="76" d="M140.91,674.4869 C127.32,711.9769 110.29,758.9569 97.23,794.9969 " fill="none" id="Atividade1-Horario1" style="stroke:#A80036;stroke-width:1.0;"/><text fill="#000000" font-family="sans-serif" font-size="13" lengthAdjust="spacing" textLength="60.4487" x="74.8196" y="694.8804">atividade</text><text fill="#000000" font-family="sans-serif" font-size="13" lengthAdjust="spacing" textLength="46.4141" x="50.94" y="784.2239">horario</text></g><!--link Atividade1 to Horario2--><g id="link_Atividade1_Horario2"><path codeLine="77" d="M187.35,674.4869 C201.1,711.9769 218.33,758.9569 231.54,794.9969 " fill="none" id="Atividade1-Horario2" style="stroke:#A80036;stroke-width:1.0;"/><text fill="#000000" font-family="sans-serif" font-size="13" lengthAdjust="spacing" textLength="60.4487" x="193.5667" y="694.8804">atividade</text><text fill="#000000" font-family="sans-serif" font-size="13" lengthAdjust="spacing" textLength="46.4141" x="180.2909" y="784.2239">horario</text></g><!--link Atividade2 to Horario3--><g id="link_Atividade2_Horario3"><path codeLine="78" d="M518,674.4869 C518,711.9769 518,758.9569 518,794.9969 " fill="none" id="Atividade2-Horario3" style="stroke:#A80036;stroke-width:1.0;"/><text fill="#000000" font-family="sans-serif" font-size="13" lengthAdjust="spacing" textLength="60.4487" x="454.5532" y="694.8804">atividade</text><text fill="#000000" font-family="sans-serif" font-size="13" lengthAdjust="spacing" textLength="46.4141" x="469.2444" y="784.2239">horario</text></g><!--SRC=[bPJ1Rjim38RlUWh2zwoERM1DK1GOMXHRWGu51kpK2sSfALjR2YGjm33iOROTXftt27wnqR6doh6793wPrC-Ff4J9FPC6QvmIddobuCv8LU5QrK3Q-UQ7BWaT54A8iaBdu8sdBKcKQWvV1S35XI5vUGaabp1dMssLzcO9jxX5DgLofQNcL_EJVJUVjSIwNNUy04-TP6DLoOldQVegJNUsMIddZ5t2LMMamKeQyMq_UpRAdaNPxx_uHwFtyz-HLXPtHfkVCLm8DnhKVIcBYL9kUOTMf35KyjPOj6IcTq6YH_uxFqiNPrd1ZiTE_KvJIMspons_zzvGpUACVG3x_Ea-U_xYLFu-FH_Hyq3FqbFehsFwFLhFqWrg_vynqQPMF13DzqzaW3zshKnxSbIlP_D9qFHET20-dURtaPpfdlk2BFAykn97h7oILOnOHM1z9D_yiJH65G5rXHATjsP48Uq3vuEtfDTihXMFhuaSxJbTg_VeIggxkRz6hzfhK2DLaT2hIgsCZc73NH8Yb0ApsGoIJTIaIuO7-g8z9CrUfCc3BRl_zjOb1qFp4oegn73WM1kiFXF-UpUIw04Jm_4QX1qPbH-RB1F3kKaU_B61qOiRAtOH_HrCmdDqaZfYPuVL-Ly0]--></g></svg>