<svg xmlns="http://www.w3.org/2000/svg" xmlns:xlink="http://www.w3.org/1999/xlink" contentStyleType="text/css" height="915px" preserveAspectRatio="none" style="width:674px;height:915px;background:#FFFFFF;" version="1.1" viewBox="0 0 674 915" width="674px" zoomAndPan="magnify"><defs/><g><text fill="#000000" font-family="sans-serif" font-size="14" font-weight="bold" lengthAdjust="spacing" textLength="190.9893" x="234.54" y="22.9951">Modelagem inst&#226;ncias 4</text><!--class Atividade1--><g id="elem_Atividade1"><rect codeLine="4" fill="#F1F1F1" height="129.4844" id="Atividade1" rx="2.5" ry="2.5" style="stroke:#181818;stroke-width:0.5;" width="297.2227" x="7" y="545.2969"/><ellipse cx="113.8594" cy="561.2969" fill="#ADD1B2" rx="11" ry="11" style="stroke:#181818;stroke-width:1.0;"/><path d="M116.8281,566.9375 Q116.25,567.2344 115.6094,567.375 Q114.9688,567.5313 114.2656,567.5313 Q111.7656,567.5313 110.4375,565.8906 Q109.125,564.2344 109.125,561.1094 Q109.125,557.9844 110.4375,556.3281 Q111.7656,554.6719 114.2656,554.6719 Q114.9688,554.6719 115.6094,554.8281 Q116.2656,554.9844 116.8281,555.2813 L116.8281,558 Q116.2031,557.4219 115.6094,557.1563 Q115.0156,556.875 114.3906,556.875 Q113.0469,556.875 112.3594,557.9531 Q111.6719,559.0156 111.6719,561.1094 Q111.6719,563.2031 112.3594,564.2813 Q113.0469,565.3438 114.3906,565.3438 Q115.0156,565.3438 115.6094,565.0781 Q116.2031,564.7969 116.8281,564.2188 L116.8281,566.9375 Z " fill="#000000"/><text fill="#000000" font-family="sans-serif" font-size="14" lengthAdjust="spacing" textLength="75.0039" x="134.3594" y="566.1436">Atividade1</text><line style="stroke:#181818;stroke-width:0.5;" x1="8" x2="303.2227" y1="577.2969" y2="577.2969"/><text fill="#000000" font-family="sans-serif" font-size="14" lengthAdjust="spacing" textLength="73.7734" x="13" y="594.292">&#171;oid&#187; id: 1</text><text fill="#000000" font-family="sans-serif" font-size="14" lengthAdjust="spacing" textLength="87.1787" x="13" y="610.5889">evento: Java</text><text fill="#000000" font-family="sans-serif" font-size="14" lengthAdjust="spacing" textLength="285.2227" x="13" y="626.8857">descri&#231;&#227;o: evento: Fundamentos de java</text><text fill="#000000" font-family="sans-serif" font-size="14" lengthAdjust="spacing" textLength="97.6719" x="13" y="643.1826">preco: 800.00</text><text fill="#000000" font-family="sans-serif" font-size="14" lengthAdjust="spacing" textLength="144.4297" x="13" y="659.4795">professor: Clodoaldo</text><line style="stroke:#181818;stroke-width:0.5;" x1="8" x2="303.2227" y1="666.7813" y2="666.7813"/></g><!--class Atividade2--><g id="elem_Atividade2"><rect codeLine="11" fill="#F1F1F1" height="129.4844" id="Atividade2" rx="2.5" ry="2.5" style="stroke:#181818;stroke-width:0.5;" width="309.0693" x="358" y="545.2969"/><ellipse cx="470.7827" cy="561.2969" fill="#ADD1B2" rx="11" ry="11" style="stroke:#181818;stroke-width:1.0;"/><path d="M473.7515,566.9375 Q473.1733,567.2344 472.5327,567.375 Q471.8921,567.5313 471.189,567.5313 Q468.689,567.5313 467.3608,565.8906 Q466.0483,564.2344 466.0483,561.1094 Q466.0483,557.9844 467.3608,556.3281 Q468.689,554.6719 471.189,554.6719 Q471.8921,554.6719 472.5327,554.8281 Q473.189,554.9844 473.7515,555.2813 L473.7515,558 Q473.1265,557.4219 472.5327,557.1563 Q471.939,556.875 471.314,556.875 Q469.9702,556.875 469.2827,557.9531 Q468.5952,559.0156 468.5952,561.1094 Q468.5952,563.2031 469.2827,564.2813 Q469.9702,565.3438 471.314,565.3438 Q471.939,565.3438 472.5327,565.0781 Q473.1265,564.7969 473.7515,564.2188 L473.7515,566.9375 Z " fill="#000000"/><text fill="#000000" font-family="sans-serif" font-size="14" lengthAdjust="spacing" textLength="75.0039" x="491.2827" y="566.1436">Atividade2</text><line style="stroke:#181818;stroke-width:0.5;" x1="359" x2="666.0693" y1="577.2969" y2="577.2969"/><text fill="#000000" font-family="sans-serif" font-size="14" lengthAdjust="spacing" textLength="73.7734" x="364" y="594.292">&#171;oid&#187; id: 2</text><text fill="#000000" font-family="sans-serif" font-size="14" lengthAdjust="spacing" textLength="106.1348" x="364" y="610.5889">evento: Python</text><text fill="#000000" font-family="sans-serif" font-size="14" lengthAdjust="spacing" textLength="297.0693" x="364" y="626.8857">descri&#231;&#227;o: Minera&#231;&#227;o de dados em Python</text><text fill="#000000" font-family="sans-serif" font-size="14" lengthAdjust="spacing" textLength="97.6719" x="364" y="643.1826">preco: 900.00</text><text fill="#000000" font-family="sans-serif" font-size="14" lengthAdjust="spacing" textLength="129.6982" x="364" y="659.4795">professor: Josefina</text><line style="stroke:#181818;stroke-width:0.5;" x1="359" x2="666.0693" y1="666.7813" y2="666.7813"/></g><!--class Horario1--><g id="elem_Horario1"><rect codeLine="18" fill="#F1F1F1" height="113.1875" id="Horario1" rx="2.5" ry="2.5" style="stroke:#181818;stroke-width:0.5;" width="139.6338" x="79.5" y="795.2969"/><ellipse cx="115.6896" cy="811.2969" fill="#ADD1B2" rx="11" ry="11" style="stroke:#181818;stroke-width:1.0;"/><path d="M118.6583,816.9375 Q118.0802,817.2344 117.4396,817.375 Q116.7989,817.5313 116.0958,817.5313 Q113.5958,817.5313 112.2677,815.8906 Q110.9552,814.2344 110.9552,811.1094 Q110.9552,807.9844 112.2677,806.3281 Q113.5958,804.6719 116.0958,804.6719 Q116.7989,804.6719 117.4396,804.8281 Q118.0958,804.9844 118.6583,805.2813 L118.6583,808 Q118.0333,807.4219 117.4396,807.1563 Q116.8458,806.875 116.2208,806.875 Q114.8771,806.875 114.1896,807.9531 Q113.5021,809.0156 113.5021,811.1094 Q113.5021,813.2031 114.1896,814.2813 Q114.8771,815.3438 116.2208,815.3438 Q116.8458,815.3438 117.4396,815.0781 Q118.0333,814.7969 118.6583,814.2188 L118.6583,816.9375 Z " fill="#000000"/><text fill="#000000" font-family="sans-serif" font-size="14" lengthAdjust="spacing" textLength="60.5459" x="134.3983" y="816.1436">Horario1</text><line style="stroke:#181818;stroke-width:0.5;" x1="80.5" x2="218.1338" y1="827.2969" y2="827.2969"/><text fill="#000000" font-family="sans-serif" font-size="14" lengthAdjust="spacing" textLength="73.7734" x="85.5" y="844.292">&#171;oid&#187; id: 1</text><text fill="#000000" font-family="sans-serif" font-size="14" lengthAdjust="spacing" textLength="103.5781" x="85.5" y="860.5889">data: 18/09/24</text><text fill="#000000" font-family="sans-serif" font-size="14" lengthAdjust="spacing" textLength="127.6338" x="85.5" y="876.8857">horarioInicio: 8:00</text><text fill="#000000" font-family="sans-serif" font-size="14" lengthAdjust="spacing" textLength="125.0771" x="85.5" y="893.1826">horarioFim: 12:00</text><line style="stroke:#181818;stroke-width:0.5;" x1="80.5" x2="218.1338" y1="900.4844" y2="900.4844"/></g><!--class Horario2--><g id="elem_Horario2"><rect codeLine="24" fill="#F1F1F1" height="113.1875" id="Horario2" rx="2.5" ry="2.5" style="stroke:#181818;stroke-width:0.5;" width="139.6338" x="254.5" y="795.2969"/><ellipse cx="290.6896" cy="811.2969" fill="#ADD1B2" rx="11" ry="11" style="stroke:#181818;stroke-width:1.0;"/><path d="M293.6583,816.9375 Q293.0802,817.2344 292.4396,817.375 Q291.7989,817.5313 291.0958,817.5313 Q288.5958,817.5313 287.2677,815.8906 Q285.9552,814.2344 285.9552,811.1094 Q285.9552,807.9844 287.2677,806.3281 Q288.5958,804.6719 291.0958,804.6719 Q291.7989,804.6719 292.4396,804.8281 Q293.0958,804.9844 293.6583,805.2813 L293.6583,808 Q293.0333,807.4219 292.4396,807.1563 Q291.8458,806.875 291.2208,806.875 Q289.8771,806.875 289.1896,807.9531 Q288.5021,809.0156 288.5021,811.1094 Q288.5021,813.2031 289.1896,814.2813 Q289.8771,815.3438 291.2208,815.3438 Q291.8458,815.3438 292.4396,815.0781 Q293.0333,814.7969 293.6583,814.2188 L293.6583,816.9375 Z " fill="#000000"/><text fill="#000000" font-family="sans-serif" font-size="14" lengthAdjust="spacing" textLength="60.5459" x="309.3983" y="816.1436">Horario2</text><line style="stroke:#181818;stroke-width:0.5;" x1="255.5" x2="393.1338" y1="827.2969" y2="827.2969"/><text fill="#000000" font-family="sans-serif" font-size="14" lengthAdjust="spacing" textLength="73.7734" x="260.5" y="844.292">&#171;oid&#187; id: 2</text><text fill="#000000" font-family="sans-serif" font-size="14" lengthAdjust="spacing" textLength="103.5781" x="260.5" y="860.5889">data: 19/09/24</text><text fill="#000000" font-family="sans-serif" font-size="14" lengthAdjust="spacing" textLength="127.6338" x="260.5" y="876.8857">horarioInicio: 8:00</text><text fill="#000000" font-family="sans-serif" font-size="14" lengthAdjust="spacing" textLength="125.0771" x="260.5" y="893.1826">horarioFim: 12:00</text><line style="stroke:#181818;stroke-width:0.5;" x1="255.5" x2="393.1338" y1="900.4844" y2="900.4844"/></g><!--class Horario3--><g id="elem_Horario3"><rect codeLine="30" fill="#F1F1F1" height="113.1875" id="Horario3" rx="2.5" ry="2.5" style="stroke:#181818;stroke-width:0.5;" width="139.6338" x="442.5" y="795.2969"/><ellipse cx="478.6896" cy="811.2969" fill="#ADD1B2" rx="11" ry="11" style="stroke:#181818;stroke-width:1.0;"/><path d="M481.6583,816.9375 Q481.0802,817.2344 480.4396,817.375 Q479.7989,817.5313 479.0958,817.5313 Q476.5958,817.5313 475.2677,815.8906 Q473.9552,814.2344 473.9552,811.1094 Q473.9552,807.9844 475.2677,806.3281 Q476.5958,804.6719 479.0958,804.6719 Q479.7989,804.6719 480.4396,804.8281 Q481.0958,804.9844 481.6583,805.2813 L481.6583,808 Q481.0333,807.4219 480.4396,807.1563 Q479.8458,806.875 479.2208,806.875 Q477.8771,806.875 477.1896,807.9531 Q476.5021,809.0156 476.5021,811.1094 Q476.5021,813.2031 477.1896,814.2813 Q477.8771,815.3438 479.2208,815.3438 Q479.8458,815.3438 480.4396,815.0781 Q481.0333,814.7969 481.6583,814.2188 L481.6583,816.9375 Z " fill="#000000"/><text fill="#000000" font-family="sans-serif" font-size="14" lengthAdjust="spacing" textLength="60.5459" x="497.3983" y="816.1436">Horario3</text><line style="stroke:#181818;stroke-width:0.5;" x1="443.5" x2="581.1338" y1="827.2969" y2="827.2969"/><text fill="#000000" font-family="sans-serif" font-size="14" lengthAdjust="spacing" textLength="73.7734" x="448.5" y="844.292">&#171;oid&#187; id: 3</text><text fill="#000000" font-family="sans-serif" font-size="14" lengthAdjust="spacing" textLength="103.5781" x="448.5" y="860.5889">data: 20/09/24</text><text fill="#000000" font-family="sans-serif" font-size="14" lengthAdjust="spacing" textLength="127.6338" x="448.5" y="876.8857">horarioInicio: 8:00</text><text fill="#000000" font-family="sans-serif" font-size="14" lengthAdjust="spacing" textLength="125.0771" x="448.5" y="893.1826">horarioFim: 17:00</text><line style="stroke:#181818;stroke-width:0.5;" x1="443.5" x2="581.1338" y1="900.4844" y2="900.4844"/></g><!--class Participante1--><g id="elem_Participante1"><rect codeLine="36" fill="#F1F1F1" height="96.8906" id="Participante1" rx="2.5" ry="2.5" style="stroke:#181818;stroke-width:0.5;" width="125.0918" x="51" y="327.2969"/><ellipse cx="66" cy="343.2969" fill="#ADD1B2" rx="11" ry="11" style="stroke:#181818;stroke-width:1.0;"/><path d="M68.9688,348.9375 Q68.3906,349.2344 67.75,349.375 Q67.1094,349.5313 66.4063,349.5313 Q63.9063,349.5313 62.5781,347.8906 Q61.2656,346.2344 61.2656,343.1094 Q61.2656,339.9844 62.5781,338.3281 Q63.9063,336.6719 66.4063,336.6719 Q67.1094,336.6719 67.75,336.8281 Q68.4063,336.9844 68.9688,337.2813 L68.9688,340 Q68.3438,339.4219 67.75,339.1563 Q67.1563,338.875 66.5313,338.875 Q65.1875,338.875 64.5,339.9531 Q63.8125,341.0156 63.8125,343.1094 Q63.8125,345.2031 64.5,346.2813 Q65.1875,347.3438 66.5313,347.3438 Q67.1563,347.3438 67.75,347.0781 Q68.3438,346.7969 68.9688,346.2188 L68.9688,348.9375 Z " fill="#000000"/><text fill="#000000" font-family="sans-serif" font-size="14" lengthAdjust="spacing" textLength="93.0918" x="80" y="348.1436">Participante1</text><line style="stroke:#181818;stroke-width:0.5;" x1="52" x2="175.0918" y1="359.2969" y2="359.2969"/><text fill="#000000" font-family="sans-serif" font-size="14" lengthAdjust="spacing" textLength="73.7734" x="57" y="376.292">&#171;oid&#187; id: 1</text><text fill="#000000" font-family="sans-serif" font-size="14" lengthAdjust="spacing" textLength="86.8301" x="57" y="392.5889">nome: F&#225;bio</text><text fill="#000000" font-family="sans-serif" font-size="14" lengthAdjust="spacing" textLength="77.0889" x="57" y="408.8857">foto: img-1</text><line style="stroke:#181818;stroke-width:0.5;" x1="52" x2="175.0918" y1="416.1875" y2="416.1875"/></g><!--class Participante2--><g id="elem_Participante2"><rect codeLine="41" fill="#F1F1F1" height="96.8906" id="Participante2" rx="2.5" ry="2.5" style="stroke:#181818;stroke-width:0.5;" width="125.0918" x="211" y="327.2969"/><ellipse cx="226" cy="343.2969" fill="#ADD1B2" rx="11" ry="11" style="stroke:#181818;stroke-width:1.0;"/><path d="M228.9688,348.9375 Q228.3906,349.2344 227.75,349.375 Q227.1094,349.5313 226.4063,349.5313 Q223.9063,349.5313 222.5781,347.8906 Q221.2656,346.2344 221.2656,343.1094 Q221.2656,339.9844 222.5781,338.3281 Q223.9063,336.6719 226.4063,336.6719 Q227.1094,336.6719 227.75,336.8281 Q228.4063,336.9844 228.9688,337.2813 L228.9688,340 Q228.3438,339.4219 227.75,339.1563 Q227.1563,338.875 226.5313,338.875 Q225.1875,338.875 224.5,339.9531 Q223.8125,341.0156 223.8125,343.1094 Q223.8125,345.2031 224.5,346.2813 Q225.1875,347.3438 226.5313,347.3438 Q227.1563,347.3438 227.75,347.0781 Q228.3438,346.7969 228.9688,346.2188 L228.9688,348.9375 Z " fill="#000000"/><text fill="#000000" font-family="sans-serif" font-size="14" lengthAdjust="spacing" textLength="93.0918" x="240" y="348.1436">Participante2</text><line style="stroke:#181818;stroke-width:0.5;" x1="212" x2="335.0918" y1="359.2969" y2="359.2969"/><text fill="#000000" font-family="sans-serif" font-size="14" lengthAdjust="spacing" textLength="73.7734" x="217" y="376.292">&#171;oid&#187; id: 2</text><text fill="#000000" font-family="sans-serif" font-size="14" lengthAdjust="spacing" textLength="77.458" x="217" y="392.5889">nome: Jos&#233;</text><text fill="#000000" font-family="sans-serif" font-size="14" lengthAdjust="spacing" textLength="77.0889" x="217" y="408.8857">foto: img-1</text><line style="stroke:#181818;stroke-width:0.5;" x1="212" x2="335.0918" y1="416.1875" y2="416.1875"/></g><!--class Participante3--><g id="elem_Participante3"><rect codeLine="46" fill="#F1F1F1" height="96.8906" id="Participante3" rx="2.5" ry="2.5" style="stroke:#181818;stroke-width:0.5;" width="127.2744" x="371" y="327.2969"/><ellipse cx="386.9822" cy="343.2969" fill="#ADD1B2" rx="11" ry="11" style="stroke:#181818;stroke-width:1.0;"/><path d="M389.9509,348.9375 Q389.3728,349.2344 388.7322,349.375 Q388.0916,349.5313 387.3884,349.5313 Q384.8884,349.5313 383.5603,347.8906 Q382.2478,346.2344 382.2478,343.1094 Q382.2478,339.9844 383.5603,338.3281 Q384.8884,336.6719 387.3884,336.6719 Q388.0916,336.6719 388.7322,336.8281 Q389.3884,336.9844 389.9509,337.2813 L389.9509,340 Q389.3259,339.4219 388.7322,339.1563 Q388.1384,338.875 387.5134,338.875 Q386.1697,338.875 385.4822,339.9531 Q384.7947,341.0156 384.7947,343.1094 Q384.7947,345.2031 385.4822,346.2813 Q386.1697,347.3438 387.5134,347.3438 Q388.1384,347.3438 388.7322,347.0781 Q389.3259,346.7969 389.9509,346.2188 L389.9509,348.9375 Z " fill="#000000"/><text fill="#000000" font-family="sans-serif" font-size="14" lengthAdjust="spacing" textLength="93.0918" x="401.2004" y="348.1436">Participante3</text><line style="stroke:#181818;stroke-width:0.5;" x1="372" x2="497.2744" y1="359.2969" y2="359.2969"/><text fill="#000000" font-family="sans-serif" font-size="14" lengthAdjust="spacing" textLength="73.7734" x="377" y="376.292">&#171;oid&#187; id: 3</text><text fill="#000000" font-family="sans-serif" font-size="14" lengthAdjust="spacing" textLength="115.2744" x="377" y="392.5889">nome: Francisca</text><text fill="#000000" font-family="sans-serif" font-size="14" lengthAdjust="spacing" textLength="77.0889" x="377" y="408.8857">foto: img-3</text><line style="stroke:#181818;stroke-width:0.5;" x1="372" x2="497.2744" y1="416.1875" y2="416.1875"/></g><!--class Participante4--><g id="elem_Participante4"><rect codeLine="51" fill="#F1F1F1" height="96.8906" id="Participante4" rx="2.5" ry="2.5" style="stroke:#181818;stroke-width:0.5;" width="125.0918" x="533" y="327.2969"/><ellipse cx="548" cy="343.2969" fill="#ADD1B2" rx="11" ry="11" style="stroke:#181818;stroke-width:1.0;"/><path d="M550.9688,348.9375 Q550.3906,349.2344 549.75,349.375 Q549.1094,349.5313 548.4063,349.5313 Q545.9063,349.5313 544.5781,347.8906 Q543.2656,346.2344 543.2656,343.1094 Q543.2656,339.9844 544.5781,338.3281 Q545.9063,336.6719 548.4063,336.6719 Q549.1094,336.6719 549.75,336.8281 Q550.4063,336.9844 550.9688,337.2813 L550.9688,340 Q550.3438,339.4219 549.75,339.1563 Q549.1563,338.875 548.5313,338.875 Q547.1875,338.875 546.5,339.9531 Q545.8125,341.0156 545.8125,343.1094 Q545.8125,345.2031 546.5,346.2813 Q547.1875,347.3438 548.5313,347.3438 Q549.1563,347.3438 549.75,347.0781 Q550.3438,346.7969 550.9688,346.2188 L550.9688,348.9375 Z " fill="#000000"/><text fill="#000000" font-family="sans-serif" font-size="14" lengthAdjust="spacing" textLength="93.0918" x="562" y="348.1436">Participante4</text><line style="stroke:#181818;stroke-width:0.5;" x1="534" x2="657.0918" y1="359.2969" y2="359.2969"/><text fill="#000000" font-family="sans-serif" font-size="14" lengthAdjust="spacing" textLength="73.7734" x="539" y="376.292">&#171;oid&#187; id: 4</text><text fill="#000000" font-family="sans-serif" font-size="14" lengthAdjust="spacing" textLength="94.6025" x="539" y="392.5889">nome: Vit&#243;ria</text><text fill="#000000" font-family="sans-serif" font-size="14" lengthAdjust="spacing" textLength="77.0889" x="539" y="408.8857">foto: img-4</text><line style="stroke:#181818;stroke-width:0.5;" x1="534" x2="657.0918" y1="416.1875" y2="416.1875"/></g><!--class Cadastro--><g id="elem_Cadastro"><rect codeLine="56" fill="#F1F1F1" height="162.0781" id="Cadastro" rx="2.5" ry="2.5" style="stroke:#181818;stroke-width:0.5;" width="188.668" x="259" y="44.2969"/><ellipse cx="317.6216" cy="60.2969" fill="#ADD1B2" rx="11" ry="11" style="stroke:#181818;stroke-width:1.0;"/><path d="M320.5903,65.9375 Q320.0122,66.2344 319.3716,66.375 Q318.731,66.5313 318.0278,66.5313 Q315.5278,66.5313 314.1997,64.8906 Q312.8872,63.2344 312.8872,60.1094 Q312.8872,56.9844 314.1997,55.3281 Q315.5278,53.6719 318.0278,53.6719 Q318.731,53.6719 319.3716,53.8281 Q320.0278,53.9844 320.5903,54.2813 L320.5903,57 Q319.9653,56.4219 319.3716,56.1563 Q318.7778,55.875 318.1528,55.875 Q316.8091,55.875 316.1216,56.9531 Q315.4341,58.0156 315.4341,60.1094 Q315.4341,62.2031 316.1216,63.2813 Q316.8091,64.3438 318.1528,64.3438 Q318.7778,64.3438 319.3716,64.0781 Q319.9653,63.7969 320.5903,63.2188 L320.5903,65.9375 Z " fill="#000000"/><text fill="#000000" font-family="sans-serif" font-size="14" lengthAdjust="spacing" textLength="62.9248" x="338.1216" y="65.1436">Cadastro</text><line style="stroke:#181818;stroke-width:0.5;" x1="260" x2="446.668" y1="76.2969" y2="76.2969"/><text fill="#000000" font-family="sans-serif" font-size="14" lengthAdjust="spacing" textLength="83.1182" x="265" y="93.292">&#171;oid&#187; id: int</text><text fill="#000000" font-family="sans-serif" font-size="14" lengthAdjust="spacing" textLength="90.6377" x="265" y="109.5889">nome: String</text><text fill="#000000" font-family="sans-serif" font-size="14" lengthAdjust="spacing" textLength="100.2559" x="265" y="125.8857">genero: String</text><text fill="#000000" font-family="sans-serif" font-size="14" lengthAdjust="spacing" textLength="176.668" x="265" y="142.1826">dataDeNascimento: Date</text><text fill="#000000" font-family="sans-serif" font-size="14" lengthAdjust="spacing" textLength="89.5576" x="265" y="158.4795">email: String</text><text fill="#000000" font-family="sans-serif" font-size="14" lengthAdjust="spacing" textLength="108.5342" x="265" y="174.7764">telefone: String</text><text fill="#000000" font-family="sans-serif" font-size="14" lengthAdjust="spacing" textLength="77.0889" x="265" y="191.0732">foto: img-1</text><line style="stroke:#181818;stroke-width:0.5;" x1="260" x2="446.668" y1="198.375" y2="198.375"/></g><!--link Cadastro to Participante1--><g id="link_Cadastro_Participante1"><path codeLine="67" d="M275.91,206.6369 C237.56,246.3369 192.59,292.9069 159.7,326.9569 " fill="none" id="Cadastro-Participante1" style="stroke:#181818;stroke-width:1.0;"/><text fill="#000000" font-family="sans-serif" font-size="13" lengthAdjust="spacing" textLength="85.3569" x="75.239" y="316.118">participantes</text></g><!--link Cadastro to Participante2--><g id="link_Cadastro_Participante2"><path codeLine="68" d="M327.64,206.6369 C314.85,246.3369 299.86,292.9069 288.9,326.9569 " fill="none" id="Cadastro-Participante2" style="stroke:#181818;stroke-width:1.0;"/><text fill="#000000" font-family="sans-serif" font-size="13" lengthAdjust="spacing" textLength="85.3569" x="200.1077" y="316.118">participantes</text></g><!--link Cadastro to Participante3--><g id="link_Cadastro_Participante3"><path codeLine="69" d="M379.69,206.6369 C392.63,246.3369 407.81,292.9069 418.91,326.9569 " fill="none" id="Cadastro-Participante3" style="stroke:#181818;stroke-width:1.0;"/><text fill="#000000" font-family="sans-serif" font-size="13" lengthAdjust="spacing" textLength="4.1323" x="375.4321" y="226.3883">&#160;</text><text fill="#000000" font-family="sans-serif" font-size="13" lengthAdjust="spacing" textLength="63.2734" x="316.291" y="241.5211">cadastros</text><text fill="#000000" font-family="sans-serif" font-size="13" lengthAdjust="spacing" textLength="85.3569" x="342.3316" y="316.2705">participantes</text></g><!--link Cadastro to Participante4--><g id="link_Cadastro_Participante4"><path codeLine="70" d="M431.74,206.6369 C470.4,246.3369 515.75,292.9069 548.92,326.9569 " fill="none" id="Cadastro-Participante4" style="stroke:#181818;stroke-width:1.0;"/><text fill="#000000" font-family="sans-serif" font-size="13" lengthAdjust="spacing" textLength="85.3569" x="474.0396" y="316.118">participantes</text></g><!--link Participante1 to Atividade1--><g id="link_Participante1_Atividade1"><path codeLine="71" d="M122.1,424.3069 C128.41,459.1669 137.05,506.8969 143.96,545.0769 " fill="none" id="Participante1-Atividade1" style="stroke:#181818;stroke-width:1.0;"/></g><!--link Participante2 to Atividade1--><g id="link_Participante2_Atividade1"><path codeLine="72" d="M249.34,424.3069 C231.6,459.1669 207.33,506.8969 187.91,545.0769 " fill="none" id="Participante2-Atividade1" style="stroke:#181818;stroke-width:1.0;"/></g><!--link Participante3 to Atividade2--><g id="link_Participante3_Atividade2"><path codeLine="73" d="M450.47,424.3069 C462.19,459.1669 478.24,506.8969 491.08,545.0769 " fill="none" id="Participante3-Atividade2" style="stroke:#181818;stroke-width:1.0;"/></g><!--link Participante4 to Atividade2--><g id="link_Participante4_Atividade2"><path codeLine="74" d="M578.5,424.3069 C566.03,459.1669 548.96,506.8969 535.3,545.0769 " fill="none" id="Participante4-Atividade2" style="stroke:#181818;stroke-width:1.0;"/></g><!--link Atividade1 to Horario1--><g id="link_Atividade1_Horario1"><path codeLine="75" d="M153.91,674.4869 C152.97,711.9769 151.8,758.9569 150.9,794.9969 " fill="none" id="Atividade1-Horario1" style="stroke:#181818;stroke-width:1.0;"/></g><!--link Atividade1 to Horario2--><g id="link_Atividade1_Horario2"><path codeLine="76" d="M200.35,674.4869 C226.75,711.9769 259.83,758.9569 285.21,794.9969 " fill="none" id="Atividade1-Horario2" style="stroke:#181818;stroke-width:1.0;"/></g><!--link Atividade2 to Horario3--><g id="link_Atividade2_Horario3"><path codeLine="77" d="M512.5,674.4869 C512.5,711.9769 512.5,758.9569 512.5,794.9969 " fill="none" id="Atividade2-Horario3" style="stroke:#181818;stroke-width:1.0;"/></g><!--SRC=[bPJFRjD04CRl-nIht4CTsn9DL5L2hIgeL5G9YHENmJj91zaxqUuI2I4U1ZWWpZo2NunnuZhhFwKafvsPBxzyipFPGA54VSS6IzXWfSdwKF-m1O7NkLAgAC5x_IhGZWmONEYlIkkB2oPpUQd9hFH2OjoX3RpIjx032Gtwmb7zg_ufkSVQpMThe6hENWJwqq6wTLX8yJn9NYJ9FkOrUizkfQzADWobOVLjw28TkKWZ5_TVmWFReOyxikXW7pI_BnWn8WrtwjRASiBABNjSauNEoMjsu8YdRyD003cTdoNBipINnCD1_SPIGKspgps_pTvG9U9KSbeF-TDzjlpbgVmXFHlHiuwU9gVGNyRqUt11f5kmuObriLoXB4Jz_IEnbe-arjnCZghDV349chw90qYcK__-JyvqpwqX1xBtle0HAvjavIDMth7UKwZ_E1gZyWvr1GPyS3oYa0qTvrrmP3SIRb3MbwD4CwThV0k-eEgmzzSGiFaRL41b90nOuffj3ElVabAT5JsVp_Li6pNfP_s17hNFITEZTFR15UrPHCzzCJl1JwxwwzReZu-Lwg_GFufPlvYg_g07nUWvR2gFhy4J-KYVnldiBm00]--></g></svg>